<?xml version="1.0" encoding="UTF-8"?>
<svg width="1200pt" height="1200pt" version="1.1" viewBox="0 0 1200 1200" xmlns="http://www.w3.org/2000/svg">
 <path d="m770.86 456.44c-5.0547 0.72656-9.7148 3.1406-13.227 6.8477-76.168 76.332-145.56 151.73-220.1 227.19l-97.297-77.695v-0.003906c-4.6992-3.7578-10.699-5.4961-16.676-4.832-5.9805 0.66406-11.449 3.6758-15.211 8.375-3.7578 4.6992-5.4961 10.695-4.8281 16.676 0.66406 5.9805 3.6758 11.449 8.375 15.207l113.36 90.688c4.3867 3.4648 9.8984 5.1914 15.477 4.8398 5.5781-0.34766 10.832-2.7461 14.754-6.7305 81.074-81.25 154.13-161.51 234.27-241.83 4.6016-4.4688 7.0977-10.672 6.8672-17.082s-3.1602-12.422-8.0703-16.547c-4.9102-4.125-11.336-5.9805-17.688-5.1016z" fill="#7f9aec"/>
</svg>
