<?xml version="1.0" encoding="UTF-8"?>
<svg width="1200pt" height="1200pt" version="1.1" viewBox="0 0 1200 1200" xmlns="http://www.w3.org/2000/svg">
 <path d="m1187.1 281.46c0.070312 26.191-10.336 51.324-28.898 69.801l-622.41 622.4c-28 27.926-65.93 43.605-105.47 43.605-39.547 0-77.477-15.68-105.48-43.605l-283.02-283.06c-24.512-25.02-33.926-61.16-24.746-94.961 9.1836-33.801 35.59-60.207 69.395-69.387 33.801-9.1797 69.938 0.24219 94.957 24.758l248.92 248.92 588.27-588.27c18.512-18.512 43.617-28.91 69.797-28.906 26.176 0 51.281 10.402 69.789 28.914 18.512 18.508 28.906 43.617 28.906 69.793z" fill="#9b9b9b"/>
</svg>
