<?xml version="1.0" encoding="UTF-8"?>
<svg width="1200pt" height="1200pt" version="1.1" viewBox="0 0 1200 1200" xmlns="http://www.w3.org/2000/svg">
 <path d="m975 225h-187.5v-37.5c0-62.016-50.484-112.5-112.5-112.5h-150c-62.016 0-112.5 50.484-112.5 112.5v37.5h-187.5c-20.719 0-37.5 16.781-37.5 37.5s16.781 37.5 37.5 37.5h37.5v712.5c0 62.016 50.484 112.5 112.5 112.5h450c62.016 0 112.5-50.484 112.5-112.5v-712.5h37.5c20.719 0 37.5-16.781 37.5-37.5s-16.781-37.5-37.5-37.5zm-487.5-37.5c0-20.672 16.828-37.5 37.5-37.5h150c20.672 0 37.5 16.828 37.5 37.5v37.5h-225zm245.06 567.05c14.625 14.625 14.625 38.391 0 53.016-7.3125 7.3125-16.922 10.969-26.531 10.969s-19.172-3.6562-26.531-10.969l-79.5-79.547-79.547 79.547c-7.3125 7.3125-16.922 10.969-26.531 10.969s-19.172-3.6562-26.531-10.969c-14.625-14.625-14.625-38.391 0-53.016l79.594-79.547-79.547-79.547c-14.625-14.625-14.625-38.391 0-53.016s38.391-14.625 53.016 0l79.547 79.547 79.547-79.547c14.625-14.625 38.391-14.625 53.016 0s14.625 38.391 0 53.016l-79.547 79.547z" fill="#d2d2d2"/>
</svg>
