<?xml version="1.0" encoding="UTF-8"?>
<svg width="1200pt" height="1200pt" version="1.1" viewBox="0 0 1200 1200" xmlns="http://www.w3.org/2000/svg">
 <path d="m480.24 204c0-46.359 37.5-84 83.859-84h71.812c46.359 0 83.859 37.641 83.859 84v43.781c46.359 15.844 88.594 40.594 124.64 72.234l37.875-21.938c40.125-23.203 91.406-9.4219 114.56 30.75l35.906 62.344c23.156 40.172 9.4219 91.547-30.656 114.75l-37.875 21.891c4.5938 23.391 6.9844 47.484 6.9844 72.188s-2.3906 48.844-6.9844 72.188l37.875 21.891c40.078 23.203 53.812 74.578 30.656 114.75l-35.906 62.344c-23.156 40.172-74.438 53.953-114.56 30.75l-37.875-21.938c-36.047 31.641-78.281 56.391-124.64 72.234v43.781c0 46.359-37.5 84-83.859 84h-71.812c-46.359 0-83.859-37.641-83.859-84v-43.781c-46.359-15.844-88.594-40.594-124.64-72.234l-37.875 21.938c-40.125 23.203-91.406 9.4219-114.56-30.75l-35.906-62.344c-23.156-40.172-9.4219-91.547 30.656-114.75l37.875-21.891c-4.5938-23.344-6.9844-47.484-6.9844-72.188s2.3906-48.797 6.9844-72.188l-37.875-21.891c-40.078-23.203-53.812-74.578-30.656-114.75l35.906-62.344c23.156-40.172 74.438-53.953 114.56-30.75l37.875 21.938c36.047-31.641 78.281-56.391 124.64-72.234zm-36.234 396c0-86.156 69.844-156 156-156s156 69.844 156 156-69.844 156-156 156-156-69.844-156-156z" fill="#7f9aec" fill-rule="evenodd"/>
</svg>
