<?xml version="1.0" encoding="UTF-8"?>
<svg id="Layer_1" xmlns="http://www.w3.org/2000/svg" viewBox="0 0 190.63 173.18">
  <defs>
    <style>
      .cls-1 {
        fill: #7f9aec;
      }
    </style>
  </defs>
  <path class="cls-1" d="M152.85,8.24c-10.15,8.04-20.76,16.62-31.63,25.58L26.07,4.33c-3.49-1.01-7.38-.26-10.1,2.43l-1.35,1.24c-.9.9-.87,2.3.25,3.03l74.14,49.89c-18.28,15.91-35.1,31.38-47.85,44.53l-29.08-8.39c-2.72-.72-5.78-.27-7.98,1.48l-3.53,2.8c-.9.89-.67,2.32.27,2.83l26.31,16.68c-7.45,8.95-11.03,15.55-8.73,18.22,2.1,2.65,9.31.88,19.74-4.32l10.18,29.63c.48,1.06,1.82,1.61,2.72.72l3.53-2.8c2.21-1.75,3.54-4.6,3.27-7.43l-1.5-30.23c15.72-9.4,34.64-22.22,54.32-36.36l31.55,83.61c.46,1.26,1.82,1.61,2.9.94l1.52-1.03c3.04-2.05,4.87-5.65,4.69-9.27l-6.88-99.37c11.19-8.32,22-16.88,32.15-24.92,14.51-11.14,16.44-27.74,11.71-33.51-4.52-5.93-21.13-7.86-35.47,3.49h0Z"/>
</svg>