<?xml version="1.0" encoding="UTF-8"?>
<svg id="Layer_1" xmlns="http://www.w3.org/2000/svg" viewBox="0 0 213.25 213.25">
  <defs>
    <style>
      .cls-1 {
        fill: #7f9aec;
      }

      .cls-2 {
        fill: none;
        stroke: #7f9aec;
        stroke-miterlimit: 10;
        stroke-width: 10px;
      }
    </style>
  </defs>
  <path class="cls-1" d="M55.63,107.17c0-11.09,3.53-21.89,10.11-30.83,6.57-8.93,15.83-15.53,26.42-18.82,10.59-3.29,21.96-3.1,32.44.53l-3.06.68h0c-1.01.23-1.84.94-2.22,1.9s-.26,2.05.32,2.91c.58.86,1.55,1.37,2.58,1.38.23,0,.46-.02.68-.08l12.29-2.73c.24-.06.46-.14.68-.24.04-.02.08-.05.12-.07.27-.14.51-.32.73-.53.01,0,.02-.01.03-.03h0c.21-.24.39-.49.53-.76.03-.05.05-.1.08-.15.12-.27.2-.55.24-.84,0-.05,0-.11.01-.16h0c.03-.28.02-.56-.03-.84v-.12c-.07-.29-.18-.58-.33-.84-.01-.03-.02-.06-.03-.08l-6.46-10.9c-.41-.75-1.1-1.3-1.92-1.53-.82-.23-1.7-.11-2.43.32-.73.43-1.26,1.15-1.45,1.98s-.04,1.7.42,2.42l1.43,2.41c-11.62-4.05-24.23-4.32-36.01-.76-11.78,3.56-22.14,10.75-29.58,20.56-7.44,9.81-11.58,21.72-11.83,34.02-.25,12.31,3.4,24.37,10.43,34.48.47.69,1.2,1.16,2.02,1.31.82.15,1.67-.04,2.35-.51.68-.48,1.15-1.21,1.29-2.03s-.05-1.67-.53-2.35c-6.09-8.71-9.34-19.08-9.31-29.7h0Z"/>
  <path class="cls-1" d="M152.46,70.01c-.72-.86-1.84-1.28-2.94-1.09-1.1.19-2.02.95-2.41,2-.39,1.05-.19,2.23.53,3.09,7.51,9.08,11.72,20.44,11.93,32.22.21,11.78-3.59,23.29-10.77,32.63-7.19,9.34-17.33,15.96-28.77,18.78-11.44,2.82-23.5,1.66-34.2-3.27l2.78-.77c1.05-.32,1.85-1.17,2.12-2.24.26-1.07-.05-2.19-.82-2.97-.78-.78-1.9-1.09-2.97-.83l-10.17,2.81c-.06.02-.12.05-.18.07s-.13.05-.21.08h0c-.27.11-.53.26-.75.44h-.01s-.02.03-.03.03h0c-.22.19-.41.4-.57.64-.03.04-.06.08-.09.12-.15.24-.26.5-.34.78-.01.06-.03.11-.04.17h0c-.07.27-.09.55-.08.84,0,.01,0,.02,0,.03.01.22.05.43.11.64.01.06.05.1.07.15.02.05.02.12.04.17l3.89,9.72h0c.31.77.91,1.39,1.68,1.72.76.33,1.63.34,2.4.03.77-.31,1.39-.91,1.72-1.68.33-.76.34-1.63.03-2.4l-.66-1.64h0c12,5.38,25.47,6.55,38.21,3.31,12.75-3.24,24.02-10.7,31.99-21.17,7.97-10.46,12.16-23.32,11.89-36.47-.27-13.15-4.98-25.82-13.36-35.95h0Z"/>
  <path class="cls-1" d="M106.62,68.42c-10.13,0-19.85,4.02-27.01,11.19-7.17,7.16-11.19,16.88-11.19,27.01s4.02,19.85,11.19,27.01c7.16,7.17,16.88,11.19,27.01,11.19s19.85-4.02,27.01-11.19c7.17-7.16,11.19-16.88,11.19-27.01-.01-10.13-4.04-19.84-11.2-27-7.16-7.16-16.87-11.19-27-11.2ZM104.62,103.82h5.98c2.52,0,4.94,1,6.72,2.79,1.78,1.78,2.79,4.2,2.79,6.72v2.86c0,2.49-.99,4.88-2.74,6.66-1.75,1.77-4.13,2.79-6.62,2.83v3.05c0,1.12-.6,2.15-1.57,2.71-.97.56-2.16.56-3.13,0-.97-.56-1.57-1.59-1.57-2.71v-3.05c-2.49-.04-4.87-1.06-6.62-2.83-1.75-1.77-2.74-4.16-2.74-6.66,0-.84.33-1.64.92-2.23.59-.59,1.38-.93,2.22-.95.83-.01,1.62.31,2.21.89s.92,1.37.92,2.2c-.01.87.32,1.71.93,2.33s1.44.97,2.31.98h5.98c.86,0,1.68-.34,2.28-.94.61-.6.95-1.42.96-2.28v-2.86c0-.86-.35-1.68-.95-2.29-.61-.61-1.43-.95-2.29-.95h-5.98c-2.52,0-4.94-1-6.72-2.77-1.78-1.78-2.79-4.19-2.79-6.71v-2.88c0-2.49.99-4.88,2.74-6.66,1.75-1.77,4.13-2.79,6.62-2.83v-3.18c0-1.12.6-2.15,1.57-2.71.97-.56,2.16-.56,3.13,0,.97.56,1.57,1.59,1.57,2.71v3.16c2.49.03,4.87,1.05,6.63,2.82,1.75,1.78,2.73,4.17,2.74,6.66,0,1.12-.6,2.15-1.57,2.71-.97.56-2.16.56-3.13,0-.97-.56-1.57-1.59-1.57-2.71,0-.86-.35-1.69-.96-2.3-.62-.58-1.43-.92-2.28-.94l-2.97.02h-3.03c-.85,0-1.67.35-2.27.96-.6.61-.94,1.43-.94,2.28v2.88c0,.86.35,1.67.96,2.28.61.6,1.43.94,2.28.94h0Z"/>
  <circle class="cls-2" cx="106.62" cy="106.62" r="101.62"/>
</svg>