<?xml version="1.0" encoding="UTF-8"?>
<svg id="Layer_1" xmlns="http://www.w3.org/2000/svg" viewBox="0 0 213.25 213.25">
  <defs>
    <style>
      .cls-1 {
        fill-rule: evenodd;
      }

      .cls-1, .cls-2 {
        fill: #7f9aec;
      }

      .cls-3 {
        fill: none;
        stroke: #7f9aec;
        stroke-miterlimit: 10;
        stroke-width: 10px;
      }
    </style>
  </defs>
  <circle class="cls-3" cx="106.62" cy="106.62" r="101.62"/>
  <path class="cls-1" d="M106.62,49.08c3.18,0,5.75,2.58,5.75,5.75v6.16c19.52,2.79,34.53,19.58,34.53,39.87v6.93c0,7.66,2,15.18,5.8,21.83l4.95,8.67c1.02,1.78,1.01,3.97-.02,5.74-1.03,1.77-2.93,2.87-4.98,2.87H60.59c-2.05,0-3.95-1.09-4.98-2.87-1.03-1.77-1.04-3.96-.02-5.74l4.95-8.67c3.8-6.65,5.8-14.17,5.8-21.83v-6.93c0-20.29,15.01-37.08,34.53-39.87v-6.16c0-3.18,2.58-5.75,5.75-5.75h0ZM106.62,83.61c3.18,0,5.75,2.58,5.75,5.75v17.26c0,3.18-2.58,5.75-5.75,5.75s-5.75-2.58-5.75-5.75v-17.26c0-3.18,2.58-5.75,5.75-5.75ZM106.62,129.64c3.18,0,5.75-2.58,5.75-5.75s-2.58-5.75-5.75-5.75-5.75,2.58-5.75,5.75,2.58,5.75,5.75,5.75Z"/>
  <path class="cls-2" d="M106.62,164.17c6.36,0,11.51-5.15,11.51-11.51h-23.02c0,6.36,5.15,11.51,11.51,11.51Z"/>
</svg>