<?xml version="1.0" encoding="UTF-8"?>
<svg id="Layer_1" xmlns="http://www.w3.org/2000/svg" viewBox="0 0 213.25 213.25">
  <defs>
    <style>
      .cls-1 {
        fill: #7f9aec;
        fill-rule: evenodd;
      }

      .cls-2 {
        fill: none;
        stroke: #7f9aec;
        stroke-miterlimit: 10;
        stroke-width: 10px;
      }
    </style>
  </defs>
  <circle class="cls-2" cx="106.62" cy="106.62" r="101.62"/>
  <path class="cls-1" d="M53.26,85.14l87.42-19.83-1.21-5.34c-.34-1.52-1.87-2.48-3.38-2.14l-81.93,18.45c-1.52.34-2.48,1.86-2.14,3.38.42,1.82.82,3.66,1.24,5.48h0ZM52.53,71.43l82.97-18.67c3.96-.89,7.9,1.6,8.79,5.56l8.7,38.43h-5.2l-3.94-17.4-87.42,19.83,5.41,23.86.48,2.11c.19.85,1.04,1.4,1.9,1.2l.65-.15v5.09l-.09.03c-3.28.74-6.55-1.35-7.31-4.62l-10.51-46.46c-.44-1.98-.12-3.84.96-5.56,1.08-1.72,2.65-2.8,4.63-3.24h0ZM74.07,98.14c-4.05,0-7.35,3.31-7.35,7.36v47.81c0,4.05,3.3,7.35,7.35,7.35h85.07c4.05,0,7.36-3.31,7.36-7.35v-47.81c0-4.05-3.31-7.36-7.36-7.36h-85.07ZM157.34,119.54v-9.73c0-.63-.5-1.13-1.13-1.13h-21.76c-.62,0-1.13.51-1.13,1.13v9.73c0,.62.51,1.13,1.13,1.13h21.76c.61,0,1.13-.5,1.13-1.13ZM141.3,149.04c-.63,0-1.14-.51-1.14-1.13v-2.26c0-.62.51-1.13,1.14-1.13h14.9c.62,0,1.13.51,1.13,1.13v2.26c0,.62-.51,1.13-1.13,1.13h-14.9ZM120.5,149.04c-.62,0-1.13-.51-1.13-1.13v-2.25c0-.63.51-1.13,1.13-1.13h14.91c.62,0,1.13.51,1.13,1.13v2.25c0,.62-.51,1.13-1.13,1.13h-14.91ZM99.72,149.04c-.62,0-1.13-.51-1.13-1.13v-2.25c0-.63.51-1.13,1.13-1.13h14.91c.62,0,1.13.51,1.13,1.13v2.25c0,.62-.51,1.13-1.13,1.13h-14.91ZM78.94,149.04c-.62,0-1.13-.51-1.13-1.13v-2.25c0-.63.51-1.13,1.13-1.13h14.91c.62,0,1.13.51,1.13,1.13v2.25c0,.62-.51,1.13-1.13,1.13h-14.91Z"/>
</svg>