<?xml version="1.0" encoding="UTF-8"?>
<svg xmlns="http://www.w3.org/2000/svg" version="1.1" viewBox="0 0 1200 1200">
  <defs>
    <style>
      .cls-1 {
        fill: #fff;
      }

      .cls-2 {
        fill: #7f9aed;
      }
    </style>
  </defs>
  <!-- Generator: Adobe Illustrator 28.6.0, SVG Export Plug-In . SVG Version: 1.2.0 Build 709)  -->
  <g>
    <g id="Layer_1">
      <g>
        <circle class="cls-2" cx="565.4" cy="565.5" r="386.7"/>
        <path class="cls-1" d="M787,747l-105.7-105.7c55.2-74.9,48.7-182.3-18.5-249.5-36.2-36.2-84.4-56.1-135.6-56.1s-99.3,19.9-135.5,56.1c-36.2,36.2-56.2,84.4-56.2,135.5s19.9,99.3,56.2,135.6c36.2,36.2,84.3,56.2,135.6,56.2s81.2-13.2,114-37.6l105.7,105.7c5.4,5.4,12.5,8.3,20,8.3s14.7-3,20-8.3c5.4-5.3,8.3-12.5,8.3-20,0-7.6-2.9-14.7-8.3-20h0ZM527.2,392.2c36.1,0,70,14,95.5,39.6,25.5,25.5,39.5,59.4,39.5,95.5s-14,70-39.5,95.5c-25.5,25.5-59.4,39.6-95.5,39.6s-70-14-95.5-39.6c-25.5-25.5-39.6-59.4-39.6-95.5s14-70,39.6-95.5c25.5-25.5,59.4-39.6,95.5-39.6h0Z"/>
      </g>
    </g>
  </g>
</svg>